<svg xmlns="http://www.w3.org/2000/svg" viewBox="0 0 70 69.85"><defs><style>.cls-1{fill:#fff;}</style></defs><g id="Calque_2" data-name="Calque 2"><g id="menu"><path class="cls-1" d="M46.67,0a3.55,3.55,0,1,0,3.56,3.55A3.55,3.55,0,0,0,46.67,0Zm0,4.74a1.19,1.19,0,1,1,1.19-1.19A1.18,1.18,0,0,1,46.67,4.74Z"/><path class="cls-1" d="M36,5.92a5.92,5.92,0,1,0,5.92,5.92A5.92,5.92,0,0,0,36,5.92Zm0,9.47a3.55,3.55,0,1,1,3.55-3.55A3.55,3.55,0,0,1,36,15.39Z"/><path class="cls-1" d="M19.45,8.29A4.74,4.74,0,1,0,24.18,13,4.74,4.74,0,0,0,19.45,8.29Zm0,7.1A2.37,2.37,0,1,1,21.81,13,2.37,2.37,0,0,1,19.45,15.39Z"/><path class="cls-1" d="M12.34,0a3.55,3.55,0,1,0,3.55,3.55A3.55,3.55,0,0,0,12.34,0Zm0,4.74a1.19,1.19,0,1,1,1.19-1.19A1.18,1.18,0,0,1,12.34,4.74Z"/><path class="cls-1" d="M41.08,38l2.24-.76L51,59.78l-2.24.76Z"/><path class="cls-1" d="M35,40.09l2.24-.77,7.65,22.51-2.24.76Z"/><path class="cls-1" d="M47.14,36l2.24-.76L57,57.71l-2.24.76Z"/><path class="cls-1" d="M69.64,43.75,64.05,27.31a6.66,6.66,0,0,0-8.46-4.17h0l-3.21,1.09-.21-.61a8.5,8.5,0,0,0-14.8-2.42,6.55,6.55,0,0,0-5.45,2.25,5.58,5.58,0,0,0-.78-.2,6.71,6.71,0,0,0-2.64.07A8.49,8.49,0,0,0,14.26,28l-.12.63-3.33-.58a6.66,6.66,0,0,0-7.72,5.42h0L.1,50.58A6.68,6.68,0,0,0,5.52,58.3l3.34.58-.11.61a3,3,0,0,0,.17,5.9L34.14,69.8a3,3,0,0,0,.52,0,3,3,0,0,0,2.73-1.77A2.88,2.88,0,0,0,39,68l24.23-8.24a3,3,0,0,0-.74-5.86l-.2-.58,3.21-1.09A6.68,6.68,0,0,0,69.64,43.75ZM50.35,25.5l.41,1.23L42.61,29.5l-.41-1.22Zm-19.71.91a4.13,4.13,0,0,1,1.56-.22,1.17,1.17,0,0,0,1.06-.57h0a4.29,4.29,0,0,1,4.49-2A1.17,1.17,0,0,0,39,23.09a6.08,6.08,0,0,1,3.21-2.54,6.15,6.15,0,0,1,7.28,2.75l-9.15,3.12a1.18,1.18,0,0,0-.74,1.5l1.77,5.19a1.56,1.56,0,0,1-3,1l-.59-1.74a1.19,1.19,0,0,0-1.48-.78,1.18,1.18,0,0,0-.79,1.47l0,.08a1.56,1.56,0,0,1-1,2,1.58,1.58,0,0,1-1.95-1l-1.18-3.46a1.18,1.18,0,0,0-1.5-.74l-2.17.73A4.29,4.29,0,0,1,30.64,26.41ZM30,33.8l-1.22.41L28.35,33l1.22-.41ZM23.71,23.42h0a6.1,6.1,0,0,1,3.56,2l.21.18a6.73,6.73,0,0,0-1.9,3.2L17,27.26A6.12,6.12,0,0,1,23.71,23.42Zm-7.29,6.16,9,1.61a6.6,6.6,0,0,0,.28,1.32l-9.5-1.66ZM6,56a4.3,4.3,0,0,1-3.49-5l3-17.11a4.3,4.3,0,0,1,5-3.5h0l3.34.58-.22,1.27-2.44-.42A3.91,3.91,0,0,0,6.57,35h0L3.89,50.31a3.93,3.93,0,0,0,3.19,4.55l2.44.43L9.3,56.56Zm7.19-21.4L9.92,53l-2.43-.43a1.55,1.55,0,0,1-1.27-1.8h0L8.9,35.41a1.55,1.55,0,0,1,1.8-1.27ZM35.36,67a.65.65,0,0,1-.75.52h0L9.39,63.06a.66.66,0,0,1-.55-.73.65.65,0,0,1,.73-.55h0a1.19,1.19,0,0,0,1.37-1l4.83-27.66,10.77,1.88,8.25,24.26-1,5.52a1.19,1.19,0,0,0,1,1.37A.64.64,0,0,1,35.36,67Zm27.42-9.7-.26.26L38.29,65.75a.65.65,0,1,1-.42-1.22,1.18,1.18,0,0,0,.74-1.5h0l-9-26.58L31,36a3.92,3.92,0,0,0,5.47.85,4.14,4.14,0,0,0,.58-.53,3.92,3.92,0,0,0,6.4-.94,3.91,3.91,0,0,0,.19-3l-.2-.61L51.56,29l9,26.58a1.2,1.2,0,0,0,1.51.74h0a.65.65,0,0,1,.8.35A.56.56,0,0,1,62.78,57.25ZM54.35,29.93l2.34-.79a1.55,1.55,0,0,1,2,1h0l5,14.72a1.55,1.55,0,0,1-1,2l-2.34.8Zm10.4,20-3.21,1.09-.42-1.22,2.34-.8a3.93,3.93,0,0,0,2.45-5l-5-14.71a3.94,3.94,0,0,0-5-2.46l-2.34.8-.41-1.22,3.21-1.09a4.31,4.31,0,0,1,5.46,2.69l5.59,16.44A4.31,4.31,0,0,1,64.75,50Z"/><path class="cls-1" d="M21.06,63.53l4.1-23.41,2.33.4-4.1,23.42Z"/><path class="cls-1" d="M27.37,64.64l2.3-13.93L32,51.1,29.71,65Z"/><path class="cls-1" d="M14.77,62.42,18.86,39l2.34.4L17.1,62.83Z"/></g></g></svg>