<svg xmlns="http://www.w3.org/2000/svg" viewBox="0 0 70 53.59"><defs><style>.cls-1{fill:#fff;}</style></defs><g id="Calque_2" data-name="Calque 2"><g id="menu"><path class="cls-1" d="M69.6,28.81,58.16,17.35a1.38,1.38,0,0,0-1-.4h-8V1.37A1.37,1.37,0,0,0,47.85,0H1.37A1.37,1.37,0,0,0,0,1.37v17.3a1.39,1.39,0,0,0,1.16,1.39,1.37,1.37,0,0,0,1.57-1.35V8.39A6.08,6.08,0,0,0,6,9.37a6,6,0,0,0,4.64-2.21,6,6,0,0,0,9.3,0,6,6,0,0,0,9.3,0,6,6,0,0,0,9.29,0,6,6,0,0,0,7.93,1.23V43.2H29.61a6.83,6.83,0,0,0-11.3-.54A6.83,6.83,0,0,0,7,43.2H2.73V29.69A1.38,1.38,0,0,0,1.57,28.3,1.36,1.36,0,0,0,0,29.65V44.57a1.37,1.37,0,0,0,1.37,1.37H6.06a5.55,5.55,0,0,0-.06.82,6.73,6.73,0,0,0,1.38,4.1H1.47A1.4,1.4,0,0,0,.08,52a1.37,1.37,0,0,0,1.35,1.57H23.84a6.84,6.84,0,0,0,6.84-6.83,7.37,7.37,0,0,0-.05-.82H51.52a7.37,7.37,0,0,0-.05.82,6.78,6.78,0,0,0,1.37,4.1H40.71A1.39,1.39,0,0,0,39.32,52a1.37,1.37,0,0,0,1.35,1.57H58.24a6.84,6.84,0,0,0,6.84-6.83,7.37,7.37,0,0,0,0-.82h3.6A1.37,1.37,0,0,0,70,44.57V29.77A1.35,1.35,0,0,0,69.6,28.81ZM8.8,46.71a4.11,4.11,0,1,1,4.1,4.1A4.11,4.11,0,0,1,8.8,46.71Zm9.57,4.14h0Zm5.47,0a4.1,4.1,0,1,1,4.1-4.1A4.11,4.11,0,0,1,23.84,50.81ZM67.27,30.37v3H57.15A1.37,1.37,0,0,1,55.78,32V19.69h.85ZM2.73,3.28V2.73H9.3v.62A3.28,3.28,0,0,1,5.76,6.62,3.39,3.39,0,0,1,2.73,3.28Zm9.3,0V2.73h6.56v.62a3.28,3.28,0,0,1-3.53,3.27A3.39,3.39,0,0,1,12,3.28Zm9.3,0V2.73h6.56v.62a3.28,3.28,0,0,1-3.53,3.27A3.39,3.39,0,0,1,21.33,3.28Zm9.29,0V2.73h6.56v.62a3.28,3.28,0,0,1-3.54,3.27A3.4,3.4,0,0,1,30.62,3.28Zm9.3,0V2.73h6.56v.62A3.28,3.28,0,0,1,43,6.62,3.39,3.39,0,0,1,39.92,3.28ZM58.31,50.81a4.1,4.1,0,1,1,4.1-4.1A4.11,4.11,0,0,1,58.31,50.81Zm5.77-7.61a6.83,6.83,0,0,0-11.67,0H49.22V19.69h3.83V32a4.09,4.09,0,0,0,4.1,4.1H67.27V43.2Z"/><path class="cls-1" d="M34.93,50.81a1.37,1.37,0,0,0-1.37,1.37,1.37,1.37,0,0,0,.4,1,1.35,1.35,0,0,0,1,.4,1.37,1.37,0,0,0,1.36-1.36,1.35,1.35,0,0,0-.4-1A1.37,1.37,0,0,0,34.93,50.81Z"/><path class="cls-1" d="M23.24,13.32v1A14.33,14.33,0,0,0,10.3,28.17,1.37,1.37,0,0,0,9,29.53a6.85,6.85,0,0,0,6.84,6.84h17.5a6.85,6.85,0,0,0,6.84-6.84,1.37,1.37,0,0,0-1.29-1.36A14.32,14.32,0,0,0,26,14.3v-1a1.37,1.37,0,0,0-1.57-1.36A1.4,1.4,0,0,0,23.24,13.32ZM33.42,33.63H15.92a4.1,4.1,0,0,1-3.86-2.73H37.29A4.1,4.1,0,0,1,33.42,33.63Zm2.82-5.47H13.1a11.58,11.58,0,0,1,23.14,0Z"/><path class="cls-1" d="M1.43,25.5a1.41,1.41,0,0,0,1-.4,1.38,1.38,0,0,0,0-1.94,1.41,1.41,0,0,0-1-.4,1.41,1.41,0,0,0-1,.4,1.38,1.38,0,0,0,0,1.94A1.41,1.41,0,0,0,1.43,25.5Z"/></g></g></svg>