<svg xmlns="http://www.w3.org/2000/svg" viewBox="0 0 70 81.45"><defs><style>.cls-1{fill:#fff;}</style></defs><g id="Calque_2" data-name="Calque 2"><g id="menu"><path class="cls-1" d="M27.24,30.7h1.63A1.15,1.15,0,0,0,29.94,30a1.21,1.21,0,0,0-1.1-1.69H27.68V25A1.14,1.14,0,0,0,27,23.89,1.2,1.2,0,0,0,25.3,25v3.79A1.93,1.93,0,0,0,27.24,30.7Z"/><path class="cls-1" d="M21.64,26.67V24a1.22,1.22,0,0,0-1.05-1.23A1.19,1.19,0,0,0,19.25,24v2.65a1.23,1.23,0,0,0,1,1.23A1.2,1.2,0,0,0,21.64,26.67Z"/><path class="cls-1" d="M22.76,21.9a1.22,1.22,0,0,0,.84.35,1.17,1.17,0,0,0,.85-.36,1.2,1.2,0,0,0,0-1.68,5.61,5.61,0,0,0-7.89,0,1.19,1.19,0,0,0,0,1.68,1.2,1.2,0,0,0,1.69,0A3.21,3.21,0,0,1,22.76,21.9Z"/><path class="cls-1" d="M33.57,24v2.61a1.21,1.21,0,0,0,.93,1.2A1.19,1.19,0,0,0,36,26.67V24a1.18,1.18,0,0,0-1.34-1.18A1.22,1.22,0,0,0,33.57,24Z"/><path class="cls-1" d="M32.49,21.9a3.21,3.21,0,0,1,4.52,0,1.18,1.18,0,0,0,1.69,0,1.19,1.19,0,0,0,0-1.68,5.61,5.61,0,0,0-7.89,0,1.19,1.19,0,0,0,0,1.68A1.2,1.2,0,0,0,32.49,21.9Z"/><path class="cls-1" d="M32.07,31.66h-8.8A2.22,2.22,0,0,0,21,33.88a6.63,6.63,0,0,0,13.25,0A2.22,2.22,0,0,0,32.07,31.66Zm-4.4,6.42a4.23,4.23,0,0,1-4.24-4H31.9A4.22,4.22,0,0,1,27.67,38.08Z"/><path class="cls-1" d="M70,43.85V33.15A2.13,2.13,0,0,0,67.88,31h-8.8A2.14,2.14,0,0,0,57,33.15V43.83a6.56,6.56,0,0,0,5.41,6.41V56H61.25a3.16,3.16,0,0,0-2.32,1L54.2,50.55a8.51,8.51,0,0,0-8.46-7.28h-5L39.11,40a14.05,14.05,0,0,0,4.08-7h1.28A4,4,0,0,0,48.52,29V25.75a3.91,3.91,0,0,0-2.38-3.56V18.34a1.22,1.22,0,0,0-.93-1.2,1.19,1.19,0,0,0-1.46,1.17V21.8H43.6a12.89,12.89,0,0,0-4.73-9.38,14.4,14.4,0,0,0-1.8-1.25V9.35a9.45,9.45,0,0,0-.42-2.78A4.92,4.92,0,0,1,38,6.36h.77a4.94,4.94,0,0,1,4.94,4.92v1.28a1.22,1.22,0,0,0,.93,1.2,1.2,1.2,0,0,0,1.46-1.17V11.32A7.34,7.34,0,0,0,38.8,4H38a7.18,7.18,0,0,0-2.41.41A9.37,9.37,0,0,0,27.68,0H18.43A9.37,9.37,0,0,0,9.07,9.37V22.19a3.92,3.92,0,0,0-2.23,3.56V29a3.85,3.85,0,0,0,3.78,3.9h1.2a14.22,14.22,0,0,0,3.81,7L14.1,43.27H8.43A8.42,8.42,0,0,0,0,51.66V79.45a2,2,0,0,0,2,2H52.25a2,2,0,0,0,2-2V70.66l2.35,3.23a5.92,5.92,0,0,0,4.8,2.44,5.93,5.93,0,0,0,5.83-4.93,7,7,0,0,0,.07-1.2,3.13,3.13,0,0,0,1.9-2.87v-1.4a1.21,1.21,0,0,0-.92-1.2,1.19,1.19,0,0,0-1.46,1.17v1.46a.74.74,0,0,1-.74.73h-4.9s-.74-.35-.88-.75v-.79a2.25,2.25,0,0,1,.41-.56,1.22,1.22,0,0,0,.43-.92,1.2,1.2,0,0,0-.43-.92,2.46,2.46,0,0,1-.41-.56V62.8a2.25,2.25,0,0,1,.41-.56,1.22,1.22,0,0,0,.43-.92,1.2,1.2,0,0,0-.43-.92.68.68,0,0,1-.26-.56v-.79c0-.4.73-.66.73-.66h4.9a.73.73,0,0,1,.74.73v1.22a1.21,1.21,0,0,0,.93,1.2,1.19,1.19,0,0,0,1.45-1.17V59.12A3.12,3.12,0,0,0,66.08,56H64.59V50.25A6.55,6.55,0,0,0,70,43.85ZM42.58,52.07,39.39,54.3a2.17,2.17,0,0,0-.56,3l3.58,5.37a.68.68,0,0,1,0,.4,1,1,0,0,0-.07.15L36.68,79.07h-1V42.53a14.48,14.48,0,0,0,1.87-1.09Zm-9.33,9.16L32.1,62.89,31,57.2l1.35-2,.91.62ZM22.11,55.68,23,55.1l1.38,2-1.1,5.69-1.16-1.66V55.68Zm4.52.58L25,53.84,27.66,52l2.67,1.83L28.7,56.26a1.2,1.2,0,0,0-.18.9l1.64,8.47-2.49,3.59-2.5-3.59,1.65-8.47A1.21,1.21,0,0,0,26.63,56.26ZM33.25,53l-4.71-3.23a.88.88,0,0,0,.12-.15l4.54-6.13,0,0V53Zm-5.58-6.16L25.51,43.9h4.32Zm-5.56-3.39h0l4.55,6.16.12.14-4.71,3.16Zm0,22L26.7,72a1.17,1.17,0,0,0,1,.52,1.21,1.21,0,0,0,1-.52l4.58-6.57V79.07H22.11Zm24-36.4a1.53,1.53,0,0,1-1.51,1.54h-.9c0-.25,0-.5,0-.75V24.18h.88a1.53,1.53,0,0,1,1.51,1.53ZM18.44,2.39H27.7a7,7,0,0,1,7,7V10a19.69,19.69,0,0,0-7.06-1.25,17.78,17.78,0,0,0-11.26,3.65,12.87,12.87,0,0,0-4.75,9.38h-.16V9.34A7,7,0,0,1,18.44,2.39Zm-7.7,28.16A1.53,1.53,0,0,1,9.23,29v-3.3a1.52,1.52,0,0,1,1.51-1.53h.87V29.8c0,.25,0,.5,0,.75ZM14,29.69v-7c0-5.78,4.21-11.62,13.6-11.62s13.6,5.84,13.6,11.62v7A11.86,11.86,0,0,1,29.33,41.52H25.88A11.87,11.87,0,0,1,14,29.69Zm-11.61,22a6,6,0,0,1,6-6h4.79l-2.62,5.49A2.34,2.34,0,0,0,11.35,54l3.07,2.15L11,61.34a2.93,2.93,0,0,0-.19,2.73l1.48,4.12a1.19,1.19,0,0,0,2.24-.8L13,63.2l-.06-.14a.61.61,0,0,1,0-.4l3.58-5.36A2.17,2.17,0,0,0,16,54.35l-3.19-2.24,5.06-10.6a14.54,14.54,0,0,0,1.88,1.08V79.07H18.62l-2.25-6.29a1.19,1.19,0,0,0-2.25.8l2,5.49H6.68V60.54a1.23,1.23,0,0,0-1-1.23A1.2,1.2,0,0,0,4.3,60.5V79.07H2.39ZM51.86,79.07H39.16l5.37-15a2.93,2.93,0,0,0-.19-2.73l-3.45-5.17L44,54a2.35,2.35,0,0,0,.75-2.87l-2.62-5.49h3.73a6,6,0,0,1,6,6Zm9.38-8.59H65a3.66,3.66,0,0,1,0,.57,3.46,3.46,0,0,1-1.43,2.27,3.62,3.62,0,0,1-5-.8l-4.33-5.9V54.69l3.82,5.2a3,3,0,0,0,.38,1.45,3,3,0,0,0-.38,1.48v.79a3,3,0,0,0,.38,1.48,3,3,0,0,0-.38,1.48v.79A3.15,3.15,0,0,0,61.24,70.48Zm-1.9-37.07h8.27v2.86H59.34Zm4.14,14.43a4.14,4.14,0,0,1-4.14-4.12V38.66h8.27v5.06A4.13,4.13,0,0,1,63.48,47.84Z"/></g></g></svg>