<svg xmlns="http://www.w3.org/2000/svg" viewBox="0 0 230.23 80"><defs><style>.cls-1,.cls-2{fill:none;stroke:#000;stroke-miterlimit:10;}.cls-1{stroke-width:2px;}</style></defs><g id="Calque_2" data-name="Calque 2"><g id="Article-mobile"><rect class="cls-1" x="18.91" y="10.31" width="52.34" height="59.16"/><path d="M58.88,52.58c-6.37-2.3-8.41-4.24-8.41-8.39a3,3,0,0,1,.18-1.1c.5-1.28,1.92-1.42,2.62-5.15.36-1.89,2.07,0,2.4-4.35,0-1.72-.94-2.15-.94-2.15s.48-2.55.67-4.51c.23-2.45-1.43-8.77-10.28-8.77H44.9c-8.85,0-10.51,6.32-10.28,8.77.19,2,.67,4.51.67,4.51s-.94.43-.94,2.15c.33,4.32,2,2.46,2.4,4.35.7,3.73,2.12,3.87,2.62,5.15a2.84,2.84,0,0,1,.18,1.1c0,4.15-2,6.09-8.41,8.39s-9.27,4.65-9.27,6.26v10.5H68.15V58.84c0-1.61-2.87-4-9.27-6.26Zm0,0"/><path d="M58.39,52.16C52.23,49.92,50.26,48,50.26,44a2.87,2.87,0,0,1,.17-1.06c.48-1.25,1.86-1.39,2.53-5,.35-1.85,2,0,2.33-4.25,0-1.68-.91-2.1-.91-2.1s.46-2.48.64-4.4c.23-2.38-1.38-8.54-9.93-8.54h-.22c-8.55,0-10.15,6.16-9.93,8.54.18,1.92.64,4.4.64,4.4s-.9.42-.9,2.1c.31,4.22,2,2.4,2.32,4.25.67,3.63,2,3.77,2.53,5A2.85,2.85,0,0,1,39.71,44c0,4.05-2,5.94-8.13,8.18s-9,4.54-9,6.11V68.51H67.35V58.27c0-1.57-2.78-3.86-9-6.11Zm0,0"/><rect class="cls-2" x="0.5" y="0.5" width="229.23" height="79"/></g></g></svg>