<svg xmlns="http://www.w3.org/2000/svg" viewBox="0 0 232 262"><defs><style>.cls-1{fill:none;stroke:#000;stroke-miterlimit:10;stroke-width:2px;}</style></defs><g id="Calque_2" data-name="Calque 2"><g id="Article-tablette"><rect class="cls-1" x="1" y="1" width="230" height="260"/><path d="M175.66,186.74c-28-10.1-37-18.63-37-36.88a12.75,12.75,0,0,1,.79-4.79c2.19-5.64,8.45-6.27,11.52-22.64,1.56-8.33,9.11-.14,10.56-19.14,0-7.57-4.13-9.45-4.13-9.45s2.1-11.21,2.92-19.83c1-10.74-6.27-38.5-45.16-38.5h-1C75.32,35.51,68,63.27,69.05,74,69.87,82.63,72,93.84,72,93.84s-4.13,1.88-4.13,9.45c1.45,19,9,10.81,10.56,19.14,3.07,16.37,9.33,17,11.53,22.64a13,13,0,0,1,.78,4.79c0,18.25-8.95,26.78-37,36.88S13,207.21,13,214.26v46.16H216.4V214.26c0-7-12.64-17.39-40.74-27.52Zm0,0"/><path d="M176.84,186.27c-28.18-10.17-37.19-18.74-37.19-37.1a13,13,0,0,1,.79-4.83c2.21-5.67,8.51-6.3,11.59-22.78,1.57-8.37,9.18-.13,10.63-19.25,0-7.61-4.15-9.51-4.15-9.51s2.11-11.27,2.93-20c1-10.81-6.31-38.74-45.43-38.74h-1C75.9,34.11,68.56,62,69.59,72.85c.82,8.68,2.93,20,2.93,20s-4.15,1.9-4.15,9.51c1.46,19.12,9.06,10.88,10.63,19.25,3.08,16.48,9.38,17.11,11.59,22.78a12.94,12.94,0,0,1,.79,4.83c0,18.36-9,26.93-37.2,37.1s-41,20.59-41,27.68V260.4H217.84V214c0-7.09-12.72-17.49-41-27.68Zm0,0"/></g></g></svg>