<svg xmlns="http://www.w3.org/2000/svg" viewBox="0 0 70 55.96"><defs><style>.cls-1{fill:#fff;}</style></defs><g id="Calque_2" data-name="Calque 2"><g id="menu"><path class="cls-1" d="M70,1.17A1.17,1.17,0,0,0,68.83,0H39.67A5.83,5.83,0,0,0,35,2.34,5.83,5.83,0,0,0,30.33,0H1.17A1.17,1.17,0,0,0,0,1.17V44.36a1.17,1.17,0,0,0,1.17,1.17H30.33A3.5,3.5,0,0,1,33.83,49a1.17,1.17,0,0,0,2.34,0,3.5,3.5,0,0,1,3.5-3.5H59.5a1.17,1.17,0,0,0,.82-.34l9.34-9.34A1.17,1.17,0,0,0,70,35ZM67.68,34.54,59,43.2H39.67A5.83,5.83,0,0,0,35,45.54a5.83,5.83,0,0,0-4.67-2.34h-28V2.32h28a3.5,3.5,0,0,1,3.5,3.5A1.19,1.19,0,0,0,35,7a1.17,1.17,0,0,0,1.17-1.17,3.51,3.51,0,0,1,3.5-3.51h28V34.54Z"/><rect class="cls-1" x="33.91" y="5.88" width="2.32" height="43.2"/><path class="cls-1" d="M67.68,35V47.85H49v2.33H68.83A1.17,1.17,0,0,0,70,49V35Z"/><path class="cls-1" d="M2.32,47.85V44.3H0V49a1.17,1.17,0,0,0,1.17,1.17H42V47.85Z"/><path class="cls-1" d="M30.42,5.88H6A1.16,1.16,0,0,0,4.79,7.05V39.71A1.16,1.16,0,0,0,6,40.88H30.42a1.16,1.16,0,0,0,1.16-1.17V7.05A1.16,1.16,0,0,0,30.42,5.88ZM29.26,38.55H7.11V8.2H29.26Z"/><rect class="cls-1" x="38.55" y="24.47" width="6.97" height="2.32"/><rect class="cls-1" x="38.55" y="10.53" width="5.88" height="2.32"/><rect class="cls-1" x="38.55" y="19.82" width="5.88" height="2.32"/><rect class="cls-1" x="38.55" y="15.18" width="8.2" height="2.32"/><rect class="cls-1" x="38.55" y="5.88" width="10.53" height="2.32"/><rect class="cls-1" x="60.7" y="10.53" width="3.55" height="2.32"/><rect class="cls-1" x="60.7" y="15.18" width="3.55" height="2.32"/><rect class="cls-1" x="60.7" y="19.82" width="3.55" height="2.32"/><rect class="cls-1" x="60.7" y="24.47" width="3.55" height="2.32"/><path class="cls-1" d="M47.85,44.3v8.32l-1.68-1.13a1.16,1.16,0,0,0-1.29,0L43.2,52.62V44.3H40.88V54.8a1.16,1.16,0,0,0,1.81,1l2.84-1.9,2.84,1.9A1.14,1.14,0,0,0,49,56a1.16,1.16,0,0,0,.83-.34,1.22,1.22,0,0,0,.34-.85V44.3Z"/><path class="cls-1" d="M59.55,33.91a1.16,1.16,0,0,0-1.17,1.16V44.3H60.7V36.09h8.21V33.91Z"/><rect class="cls-1" x="59.47" y="43.2" width="10.53" height="2.32"/><rect class="cls-1" x="38.55" y="33.91" width="6.97" height="2.32"/><rect class="cls-1" x="38.55" y="29.12" width="5.88" height="2.32"/><rect class="cls-1" x="60.7" y="29.12" width="3.55" height="2.32"/><path class="cls-1" d="M30.42,26.8H10.67A1.15,1.15,0,0,0,9.5,27.94a5.82,5.82,0,0,0,5.81,5.83H30.42a1.16,1.16,0,0,0,1.16-1.17V28A1.16,1.16,0,0,0,30.42,26.8Zm-1.16,4.65H15.31A3.5,3.5,0,0,1,12,29.12H29.26Z"/><path class="cls-1" d="M28,22.34a4.66,4.66,0,0,0-4.54-3.61h-3.5a4.66,4.66,0,0,0-4.54,3.61,4.65,4.65,0,0,0-3.62,4.53V28h2.32V26.87a2.36,2.36,0,0,1,2.36-2.33,1.16,1.16,0,0,0,1.14-1.13,2.37,2.37,0,0,1,2.33-2.36h3.52a2.37,2.37,0,0,1,2.33,2.36,1.16,1.16,0,0,0,1.14,1.13,2.36,2.36,0,0,1,2.36,2.33V28h2.32V26.87A4.65,4.65,0,0,0,28,22.34Z"/><rect class="cls-1" x="5.88" y="31.45" width="9.3" height="2.32"/><rect class="cls-1" x="9.43" y="10.53" width="6.97" height="2.32"/><rect class="cls-1" x="9.43" y="15.18" width="4.65" height="2.32"/><rect class="cls-1" x="9.3" y="19.82" width="3.55" height="2.32"/><rect class="cls-1" x="38.55" y="38.55" width="17.5" height="2.32"/><rect class="cls-1" x="47.85" y="33.91" width="8.2" height="2.32"/></g></g></svg>