<svg xmlns="http://www.w3.org/2000/svg" viewBox="0 0 70 64.14"><defs><style>.cls-1{fill:#fff;}</style></defs><g id="Calque_2" data-name="Calque 2"><g id="menu"><path class="cls-1" d="M41.11,14.24a1.38,1.38,0,0,1-.88-.32c-.85-.72-5.17-4.38-6.17-5.91a5.39,5.39,0,0,1-1-3.36A4.86,4.86,0,0,1,37.89,0,5,5,0,0,1,41.1,1.36,5,5,0,0,1,44.34,0a4.86,4.86,0,0,1,4.81,4.65,5.39,5.39,0,0,1-1,3.36c-1,1.52-5.32,5.19-6.18,5.91a1.4,1.4,0,0,1-.88.32ZM37.89,2.73a2.15,2.15,0,0,0-2.07,2.06,2.66,2.66,0,0,0,.52,1.72,42.17,42.17,0,0,0,4.77,4.57,43.39,43.39,0,0,0,4.78-4.57,2.67,2.67,0,0,0,.53-1.72,2.16,2.16,0,0,0-2.08-2.06c-1,0-1.89,1.11-2.09,1.41a1.36,1.36,0,0,1-2.25,0C39.73,3.8,38.77,2.73,37.89,2.73Z"/><path class="cls-1" d="M58.82,29.32a1.35,1.35,0,0,1-.88-.32c-.76-.64-7.47-6.31-8.93-8.53a7.31,7.31,0,0,1-1.33-4.55A6.5,6.5,0,0,1,54.09,9.7a7,7,0,0,1,4.73,2.24A6.93,6.93,0,0,1,63.57,9.7,6.49,6.49,0,0,1,70,15.92a7.33,7.33,0,0,1-1.32,4.55c-1.45,2.2-8.19,7.89-9,8.53a1.31,1.31,0,0,1-.88.32ZM54.09,12.44a3.8,3.8,0,0,0-3.68,3.62A4.59,4.59,0,0,0,51.29,19c.85,1.29,4.69,4.76,7.53,7.19,2.86-2.44,6.71-5.91,7.55-7.19a4.53,4.53,0,0,0,.88-2.91,3.8,3.8,0,0,0-3.68-3.62c-1.65,0-3.16,1.7-3.6,2.35a1.39,1.39,0,0,1-1.12.61,1.43,1.43,0,0,1-1.14-.58c-.47-.66-2-2.38-3.62-2.38Z"/><path class="cls-1" d="M35,64.06a1.36,1.36,0,0,1-.88-2.4,1.36,1.36,0,1,1,.88,2.4Z"/><path class="cls-1" d="M65.17,54.43H63.58V52a28.73,28.73,0,0,0-24-28.35,6,6,0,0,0-.16-7.09,2.78,2.78,0,0,0-.7-.71c-4.55-3.11-9.43.12-9.43,4.47a5.72,5.72,0,0,0,1.07,3.33A28.73,28.73,0,0,0,6.42,52v2.42H3.52a2.46,2.46,0,0,0-1.81.81c-3.69,4.1-.83,8.9,3.12,8.9H28.76A1.39,1.39,0,0,0,30.16,63a1.37,1.37,0,0,0-1.35-1.57H4.87a2.12,2.12,0,1,1-.06-4.24h60.3a2.12,2.12,0,1,1,0,4.24H41.21a1.38,1.38,0,0,0-1.39,1.16,1.37,1.37,0,0,0,1.35,1.57H66.48a2.42,2.42,0,0,0,1.8-.8c3.7-4.11.84-8.91-3.11-8.91Zm-33.12-34A2.94,2.94,0,1,1,35,23.41,2.94,2.94,0,0,1,32.05,20.47Zm-22.89,34V52.24c0-14,11.41-25.81,25.36-26.06A25.87,25.87,0,0,1,60.84,52v2.41Z"/></g></g></svg>