<svg xmlns="http://www.w3.org/2000/svg" viewBox="0 0 70 70.06"><defs><style>.cls-1{fill:#fff;}</style></defs><g id="Calque_2" data-name="Calque 2"><g id="menu"><path class="cls-1" d="M69.89,60.72l-.65-1.65A3.66,3.66,0,0,0,64.51,57l-4.17,1.64L56.7,49.37a19.91,19.91,0,0,1,0-14.51c.48-1.2,1.23-2.3,1.66-3.5a19.67,19.67,0,0,0,.94-10.58,17.06,17.06,0,0,0-1.79-4.93c-1.27-2.28-2.84-4.92-4.68-7.83a1,1,0,0,0-1.41-.32,1,1,0,0,0-.32,1.42c.72,1.15,1.41,2.26,2.05,3.31l-15,5.9c.21-3.82.29-7.42.33-9.69a4.4,4.4,0,0,0-1.58-3.43l7.56-3a2.34,2.34,0,0,1,2.78.87l1.37,2.08a1,1,0,0,0,1.72-1.13L48.92,2A4.39,4.39,0,0,0,43.69.33L34.13,4.08,17.28.11a4.41,4.41,0,0,0-5,2.37c-1.55,3.24-4.45,9.48-6.54,15A18.14,18.14,0,0,0,6.72,32a29.8,29.8,0,0,0,1.83,3,19.75,19.75,0,0,1,2.82,15.54L9.09,60.19l-4.26-1A3.65,3.65,0,0,0,.45,61.9L0,63.63a1.56,1.56,0,0,0,1.14,1.85L4,66.15a1,1,0,1,0,.47-2L2.16,63.6l.29-1.23a1.59,1.59,0,0,1,1.91-1.19L19.5,64.76a1.59,1.59,0,0,1,1.19,1.91l-.29,1.24L9.1,65.24a1,1,0,0,0-.48,2L20.43,70a1.48,1.48,0,0,0,1.16-.19,1.52,1.52,0,0,0,.69-1l.41-1.73A3.66,3.66,0,0,0,20,62.76l-4.36-1L17.89,52a19.77,19.77,0,0,1,9.22-12.51,13.92,13.92,0,0,0,1.58-.82A18.35,18.35,0,0,0,32,36.2a18.5,18.5,0,0,0,4.11,3,26.49,26.49,0,0,0,3.22,1.43A19.72,19.72,0,0,1,50.46,51.82l3.64,9.26L50,62.67a3.67,3.67,0,0,0-2,1.94,3.6,3.6,0,0,0,0,2.79l.65,1.66a1.64,1.64,0,0,0,2,.87L53,69l7.19-2.82L69,62.72a1.51,1.51,0,0,0,.88-2ZM14.18,3.37a2.36,2.36,0,0,1,2.11-1.32,2.31,2.31,0,0,1,.52.06l17.81,4.2A2.34,2.34,0,0,1,36.41,8.6c0,2.54-.15,6.75-.41,11L9.62,13.44C11.3,9.48,13.09,5.66,14.18,3.37Zm1.72,48.2-2.29,9.69-2.52-.6L13.37,51a22,22,0,0,0-.7-12.4,15.42,15.42,0,0,0,8.12,2.29c.4,0,.82,0,1.23,0A21.81,21.81,0,0,0,15.9,51.57ZM27.63,37a13.5,13.5,0,0,1-9,1.7c-9.35-1.5-14-12.57-10.74-20.94.31-.81.64-1.57,1-2.34l27,6.36a20.64,20.64,0,0,1-2,8.61A16.93,16.93,0,0,1,27.63,37ZM42.12,39.1a14.84,14.84,0,0,1-5.06-1.7,16.29,16.29,0,0,1-3.67-2.69A18,18,0,0,0,37.64,25c.14-1.41.26-2.89.35-4.36l16.23-6.36c.37.61.72,1.22,1.06,1.82,3.25,5.65,3.23,13.39-1.14,18.47a13.47,13.47,0,0,1-12,4.58Zm10.25,12a21.94,21.94,0,0,0-7.62-9.8,3.93,3.93,0,0,0,1-.09,15.21,15.21,0,0,0,2.68-.57,16.78,16.78,0,0,0,5.22-2.8,23.36,23.36,0,0,0,1.09,12.31l3.64,9.26L56,60.33Zm-2,16.76-.46-1.18a1.59,1.59,0,0,1,.9-2.06l14.49-5.68a1.66,1.66,0,0,1,.58-.11,1.61,1.61,0,0,1,.64.14,1.55,1.55,0,0,1,.84.88L67.79,61Z"/></g></g></svg>